<?xml version="1.0" encoding="utf-8"?>
<svg version="1.1" xmlns="http://www.w3.org/2000/svg" xmlns:xlink="http://www.w3.org/1999/xlink" width="2000" height="2000" viewBox="0 0 1000 1000" enable-background="new 0 0 2000 2000" xml:space="preserve"><rect x="0" y="0" rx="333.33334" ry="333.33334" width="1000" height="1000" fill="rgb(255,255,255)" opacity="1.0" /><rect x="0" y="0" rx="166.66667" ry="166.66667" width="1000" height="1000" fill="rgb(0,0,0)" opacity="1.0" /><rect x="50" y="50" rx="138.46153" ry="138.46153" width="900" height="900" fill="rgb(255,255,255)" opacity="1.0" /><g transform="translate(120,120) scale(0.38000003,0.38000003)"><svg width="2000" height="2000" viewBox="0 0 500 500" enable-background="new 0 0 2000 2000" xml:space="preserve"><rect x="0" y="0" width="500" height="500" fill="rgb(255,255,255)" opacity="1.0" /><rect x="160" y="0" width="20" height="20" fill="rgb(0,0,0)" opacity="1.0" shape-rendering="crispEdges" /><rect x="200" y="0" width="20" height="20" fill="rgb(0,0,0)" opacity="1.0" shape-rendering="crispEdges" /><rect x="220" y="0" width="20" height="20" fill="rgb(0,0,0)" opacity="1.0" shape-rendering="crispEdges" /><rect x="320" y="0" width="20" height="20" fill="rgb(0,0,0)" opacity="1.0" shape-rendering="crispEdges" /><rect x="160" y="20" width="20" height="20" fill="rgb(0,0,0)" opacity="1.0" shape-rendering="crispEdges" /><rect x="200" y="20" width="20" height="20" fill="rgb(0,0,0)" opacity="1.0" shape-rendering="crispEdges" /><rect x="220" y="20" width="20" height="20" fill="rgb(0,0,0)" opacity="1.0" shape-rendering="crispEdges" /><rect x="260" y="20" width="20" height="20" fill="rgb(0,0,0)" opacity="1.0" shape-rendering="crispEdges" /><rect x="300" y="20" width="20" height="20" fill="rgb(0,0,0)" opacity="1.0" shape-rendering="crispEdges" /><rect x="200" y="40" width="20" height="20" fill="rgb(0,0,0)" opacity="1.0" shape-rendering="crispEdges" /><rect x="220" y="40" width="20" height="20" fill="rgb(0,0,0)" opacity="1.0" shape-rendering="crispEdges" /><rect x="260" y="40" width="20" height="20" fill="rgb(0,0,0)" opacity="1.0" shape-rendering="crispEdges" /><rect x="300" y="40" width="20" height="20" fill="rgb(0,0,0)" opacity="1.0" shape-rendering="crispEdges" /><rect x="320" y="40" width="20" height="20" fill="rgb(0,0,0)" opacity="1.0" shape-rendering="crispEdges" /><rect x="160" y="60" width="20" height="20" fill="rgb(0,0,0)" opacity="1.0" shape-rendering="crispEdges" /><rect x="180" y="60" width="20" height="20" fill="rgb(0,0,0)" opacity="1.0" shape-rendering="crispEdges" /><rect x="200" y="60" width="20" height="20" fill="rgb(0,0,0)" opacity="1.0" shape-rendering="crispEdges" /><rect x="240" y="60" width="20" height="20" fill="rgb(0,0,0)" opacity="1.0" shape-rendering="crispEdges" /><rect x="260" y="60" width="20" height="20" fill="rgb(0,0,0)" opacity="1.0" shape-rendering="crispEdges" /><rect x="280" y="60" width="20" height="20" fill="rgb(0,0,0)" opacity="1.0" shape-rendering="crispEdges" /><rect x="300" y="60" width="20" height="20" fill="rgb(0,0,0)" opacity="1.0" shape-rendering="crispEdges" /><rect x="320" y="60" width="20" height="20" fill="rgb(0,0,0)" opacity="1.0" shape-rendering="crispEdges" /><rect x="180" y="80" width="20" height="20" fill="rgb(0,0,0)" opacity="1.0" shape-rendering="crispEdges" /><rect x="200" y="80" width="20" height="20" fill="rgb(0,0,0)" opacity="1.0" shape-rendering="crispEdges" /><rect x="220" y="80" width="20" height="20" fill="rgb(0,0,0)" opacity="1.0" shape-rendering="crispEdges" /><rect x="240" y="80" width="20" height="20" fill="rgb(0,0,0)" opacity="1.0" shape-rendering="crispEdges" /><rect x="300" y="80" width="20" height="20" fill="rgb(0,0,0)" opacity="1.0" shape-rendering="crispEdges" /><rect x="320" y="80" width="20" height="20" fill="rgb(0,0,0)" opacity="1.0" shape-rendering="crispEdges" /><rect x="200" y="100" width="20" height="20" fill="rgb(0,0,0)" opacity="1.0" shape-rendering="crispEdges" /><rect x="280" y="100" width="20" height="20" fill="rgb(0,0,0)" opacity="1.0" shape-rendering="crispEdges" /><rect x="300" y="100" width="20" height="20" fill="rgb(0,0,0)" opacity="1.0" shape-rendering="crispEdges" /><rect x="320" y="100" width="20" height="20" fill="rgb(0,0,0)" opacity="1.0" shape-rendering="crispEdges" /><rect x="160" y="120" width="20" height="20" fill="rgb(0,0,0)" opacity="1.0" shape-rendering="crispEdges" /><rect x="200" y="120" width="20" height="20" fill="rgb(0,0,0)" opacity="1.0" shape-rendering="crispEdges" /><rect x="240" y="120" width="20" height="20" fill="rgb(0,0,0)" opacity="1.0" shape-rendering="crispEdges" /><rect x="280" y="120" width="20" height="20" fill="rgb(0,0,0)" opacity="1.0" shape-rendering="crispEdges" /><rect x="320" y="120" width="20" height="20" fill="rgb(0,0,0)" opacity="1.0" shape-rendering="crispEdges" /><rect x="160" y="140" width="20" height="20" fill="rgb(0,0,0)" opacity="1.0" shape-rendering="crispEdges" /><rect x="180" y="140" width="20" height="20" fill="rgb(0,0,0)" opacity="1.0" shape-rendering="crispEdges" /><rect x="240" y="140" width="20" height="20" fill="rgb(0,0,0)" opacity="1.0" shape-rendering="crispEdges" /><rect x="260" y="140" width="20" height="20" fill="rgb(0,0,0)" opacity="1.0" shape-rendering="crispEdges" /><rect x="280" y="140" width="20" height="20" fill="rgb(0,0,0)" opacity="1.0" shape-rendering="crispEdges" /><rect x="300" y="140" width="20" height="20" fill="rgb(0,0,0)" opacity="1.0" shape-rendering="crispEdges" /><rect x="320" y="140" width="20" height="20" fill="rgb(0,0,0)" opacity="1.0" shape-rendering="crispEdges" /><rect x="0" y="160" width="20" height="20" fill="rgb(0,0,0)" opacity="1.0" shape-rendering="crispEdges" /><rect x="40" y="160" width="20" height="20" fill="rgb(0,0,0)" opacity="1.0" shape-rendering="crispEdges" /><rect x="60" y="160" width="20" height="20" fill="rgb(0,0,0)" opacity="1.0" shape-rendering="crispEdges" /><rect x="100" y="160" width="20" height="20" fill="rgb(0,0,0)" opacity="1.0" shape-rendering="crispEdges" /><rect x="120" y="160" width="20" height="20" fill="rgb(0,0,0)" opacity="1.0" shape-rendering="crispEdges" /><rect x="140" y="160" width="20" height="20" fill="rgb(0,0,0)" opacity="1.0" shape-rendering="crispEdges" /><rect x="260" y="160" width="20" height="20" fill="rgb(0,0,0)" opacity="1.0" shape-rendering="crispEdges" /><rect x="360" y="160" width="20" height="20" fill="rgb(0,0,0)" opacity="1.0" shape-rendering="crispEdges" /><rect x="420" y="160" width="20" height="20" fill="rgb(0,0,0)" opacity="1.0" shape-rendering="crispEdges" /><rect x="460" y="160" width="20" height="20" fill="rgb(0,0,0)" opacity="1.0" shape-rendering="crispEdges" /><rect x="480" y="160" width="20" height="20" fill="rgb(0,0,0)" opacity="1.0" shape-rendering="crispEdges" /><rect x="40" y="180" width="20" height="20" fill="rgb(0,0,0)" opacity="1.0" shape-rendering="crispEdges" /><rect x="80" y="180" width="20" height="20" fill="rgb(0,0,0)" opacity="1.0" shape-rendering="crispEdges" /><rect x="140" y="180" width="20" height="20" fill="rgb(0,0,0)" opacity="1.0" shape-rendering="crispEdges" /><rect x="160" y="180" width="20" height="20" fill="rgb(0,0,0)" opacity="1.0" shape-rendering="crispEdges" /><rect x="200" y="180" width="20" height="20" fill="rgb(0,0,0)" opacity="1.0" shape-rendering="crispEdges" /><rect x="220" y="180" width="20" height="20" fill="rgb(0,0,0)" opacity="1.0" shape-rendering="crispEdges" /><rect x="280" y="180" width="20" height="20" fill="rgb(0,0,0)" opacity="1.0" shape-rendering="crispEdges" /><rect x="320" y="180" width="20" height="20" fill="rgb(0,0,0)" opacity="1.0" shape-rendering="crispEdges" /><rect x="340" y="180" width="20" height="20" fill="rgb(0,0,0)" opacity="1.0" shape-rendering="crispEdges" /><rect x="380" y="180" width="20" height="20" fill="rgb(0,0,0)" opacity="1.0" shape-rendering="crispEdges" /><rect x="400" y="180" width="20" height="20" fill="rgb(0,0,0)" opacity="1.0" shape-rendering="crispEdges" /><rect x="480" y="180" width="20" height="20" fill="rgb(0,0,0)" opacity="1.0" shape-rendering="crispEdges" /><rect x="0" y="200" width="20" height="20" fill="rgb(0,0,0)" opacity="1.0" shape-rendering="crispEdges" /><rect x="40" y="200" width="20" height="20" fill="rgb(0,0,0)" opacity="1.0" shape-rendering="crispEdges" /><rect x="80" y="200" width="20" height="20" fill="rgb(0,0,0)" opacity="1.0" shape-rendering="crispEdges" /><rect x="120" y="200" width="20" height="20" fill="rgb(0,0,0)" opacity="1.0" shape-rendering="crispEdges" /><rect x="140" y="200" width="20" height="20" fill="rgb(0,0,0)" opacity="1.0" shape-rendering="crispEdges" /><rect x="160" y="200" width="20" height="20" fill="rgb(0,0,0)" opacity="1.0" shape-rendering="crispEdges" /><rect x="180" y="200" width="20" height="20" fill="rgb(0,0,0)" opacity="1.0" shape-rendering="crispEdges" /><rect x="200" y="200" width="20" height="20" fill="rgb(0,0,0)" opacity="1.0" shape-rendering="crispEdges" /><rect x="220" y="200" width="20" height="20" fill="rgb(0,0,0)" opacity="1.0" shape-rendering="crispEdges" /><rect x="240" y="200" width="20" height="20" fill="rgb(0,0,0)" opacity="1.0" shape-rendering="crispEdges" /><rect x="260" y="200" width="20" height="20" fill="rgb(0,0,0)" opacity="1.0" shape-rendering="crispEdges" /><rect x="300" y="200" width="20" height="20" fill="rgb(0,0,0)" opacity="1.0" shape-rendering="crispEdges" /><rect x="420" y="200" width="20" height="20" fill="rgb(0,0,0)" opacity="1.0" shape-rendering="crispEdges" /><rect x="440" y="200" width="20" height="20" fill="rgb(0,0,0)" opacity="1.0" shape-rendering="crispEdges" /><rect x="460" y="200" width="20" height="20" fill="rgb(0,0,0)" opacity="1.0" shape-rendering="crispEdges" /><rect x="480" y="200" width="20" height="20" fill="rgb(0,0,0)" opacity="1.0" shape-rendering="crispEdges" /><rect x="20" y="220" width="20" height="20" fill="rgb(0,0,0)" opacity="1.0" shape-rendering="crispEdges" /><rect x="60" y="220" width="20" height="20" fill="rgb(0,0,0)" opacity="1.0" shape-rendering="crispEdges" /><rect x="100" y="220" width="20" height="20" fill="rgb(0,0,0)" opacity="1.0" shape-rendering="crispEdges" /><rect x="140" y="220" width="20" height="20" fill="rgb(0,0,0)" opacity="1.0" shape-rendering="crispEdges" /><rect x="160" y="220" width="20" height="20" fill="rgb(0,0,0)" opacity="1.0" shape-rendering="crispEdges" /><rect x="200" y="220" width="20" height="20" fill="rgb(0,0,0)" opacity="1.0" shape-rendering="crispEdges" /><rect x="260" y="220" width="20" height="20" fill="rgb(0,0,0)" opacity="1.0" shape-rendering="crispEdges" /><rect x="280" y="220" width="20" height="20" fill="rgb(0,0,0)" opacity="1.0" shape-rendering="crispEdges" /><rect x="300" y="220" width="20" height="20" fill="rgb(0,0,0)" opacity="1.0" shape-rendering="crispEdges" /><rect x="360" y="220" width="20" height="20" fill="rgb(0,0,0)" opacity="1.0" shape-rendering="crispEdges" /><rect x="380" y="220" width="20" height="20" fill="rgb(0,0,0)" opacity="1.0" shape-rendering="crispEdges" /><rect x="420" y="220" width="20" height="20" fill="rgb(0,0,0)" opacity="1.0" shape-rendering="crispEdges" /><rect x="440" y="220" width="20" height="20" fill="rgb(0,0,0)" opacity="1.0" shape-rendering="crispEdges" /><rect x="480" y="220" width="20" height="20" fill="rgb(0,0,0)" opacity="1.0" shape-rendering="crispEdges" /><rect x="0" y="240" width="20" height="20" fill="rgb(0,0,0)" opacity="1.0" shape-rendering="crispEdges" /><rect x="20" y="240" width="20" height="20" fill="rgb(0,0,0)" opacity="1.0" shape-rendering="crispEdges" /><rect x="40" y="240" width="20" height="20" fill="rgb(0,0,0)" opacity="1.0" shape-rendering="crispEdges" /><rect x="80" y="240" width="20" height="20" fill="rgb(0,0,0)" opacity="1.0" shape-rendering="crispEdges" /><rect x="120" y="240" width="20" height="20" fill="rgb(0,0,0)" opacity="1.0" shape-rendering="crispEdges" /><rect x="140" y="240" width="20" height="20" fill="rgb(0,0,0)" opacity="1.0" shape-rendering="crispEdges" /><rect x="160" y="240" width="20" height="20" fill="rgb(0,0,0)" opacity="1.0" shape-rendering="crispEdges" /><rect x="200" y="240" width="20" height="20" fill="rgb(0,0,0)" opacity="1.0" shape-rendering="crispEdges" /><rect x="220" y="240" width="20" height="20" fill="rgb(0,0,0)" opacity="1.0" shape-rendering="crispEdges" /><rect x="280" y="240" width="20" height="20" fill="rgb(0,0,0)" opacity="1.0" shape-rendering="crispEdges" /><rect x="300" y="240" width="20" height="20" fill="rgb(0,0,0)" opacity="1.0" shape-rendering="crispEdges" /><rect x="320" y="240" width="20" height="20" fill="rgb(0,0,0)" opacity="1.0" shape-rendering="crispEdges" /><rect x="340" y="240" width="20" height="20" fill="rgb(0,0,0)" opacity="1.0" shape-rendering="crispEdges" /><rect x="380" y="240" width="20" height="20" fill="rgb(0,0,0)" opacity="1.0" shape-rendering="crispEdges" /><rect x="400" y="240" width="20" height="20" fill="rgb(0,0,0)" opacity="1.0" shape-rendering="crispEdges" /><rect x="420" y="240" width="20" height="20" fill="rgb(0,0,0)" opacity="1.0" shape-rendering="crispEdges" /><rect x="460" y="240" width="20" height="20" fill="rgb(0,0,0)" opacity="1.0" shape-rendering="crispEdges" /><rect x="480" y="240" width="20" height="20" fill="rgb(0,0,0)" opacity="1.0" shape-rendering="crispEdges" /><rect x="20" y="260" width="20" height="20" fill="rgb(0,0,0)" opacity="1.0" shape-rendering="crispEdges" /><rect x="80" y="260" width="20" height="20" fill="rgb(0,0,0)" opacity="1.0" shape-rendering="crispEdges" /><rect x="140" y="260" width="20" height="20" fill="rgb(0,0,0)" opacity="1.0" shape-rendering="crispEdges" /><rect x="180" y="260" width="20" height="20" fill="rgb(0,0,0)" opacity="1.0" shape-rendering="crispEdges" /><rect x="200" y="260" width="20" height="20" fill="rgb(0,0,0)" opacity="1.0" shape-rendering="crispEdges" /><rect x="240" y="260" width="20" height="20" fill="rgb(0,0,0)" opacity="1.0" shape-rendering="crispEdges" /><rect x="280" y="260" width="20" height="20" fill="rgb(0,0,0)" opacity="1.0" shape-rendering="crispEdges" /><rect x="300" y="260" width="20" height="20" fill="rgb(0,0,0)" opacity="1.0" shape-rendering="crispEdges" /><rect x="360" y="260" width="20" height="20" fill="rgb(0,0,0)" opacity="1.0" shape-rendering="crispEdges" /><rect x="380" y="260" width="20" height="20" fill="rgb(0,0,0)" opacity="1.0" shape-rendering="crispEdges" /><rect x="420" y="260" width="20" height="20" fill="rgb(0,0,0)" opacity="1.0" shape-rendering="crispEdges" /><rect x="20" y="280" width="20" height="20" fill="rgb(0,0,0)" opacity="1.0" shape-rendering="crispEdges" /><rect x="40" y="280" width="20" height="20" fill="rgb(0,0,0)" opacity="1.0" shape-rendering="crispEdges" /><rect x="100" y="280" width="20" height="20" fill="rgb(0,0,0)" opacity="1.0" shape-rendering="crispEdges" /><rect x="120" y="280" width="20" height="20" fill="rgb(0,0,0)" opacity="1.0" shape-rendering="crispEdges" /><rect x="160" y="280" width="20" height="20" fill="rgb(0,0,0)" opacity="1.0" shape-rendering="crispEdges" /><rect x="220" y="280" width="20" height="20" fill="rgb(0,0,0)" opacity="1.0" shape-rendering="crispEdges" /><rect x="280" y="280" width="20" height="20" fill="rgb(0,0,0)" opacity="1.0" shape-rendering="crispEdges" /><rect x="300" y="280" width="20" height="20" fill="rgb(0,0,0)" opacity="1.0" shape-rendering="crispEdges" /><rect x="320" y="280" width="20" height="20" fill="rgb(0,0,0)" opacity="1.0" shape-rendering="crispEdges" /><rect x="340" y="280" width="20" height="20" fill="rgb(0,0,0)" opacity="1.0" shape-rendering="crispEdges" /><rect x="380" y="280" width="20" height="20" fill="rgb(0,0,0)" opacity="1.0" shape-rendering="crispEdges" /><rect x="400" y="280" width="20" height="20" fill="rgb(0,0,0)" opacity="1.0" shape-rendering="crispEdges" /><rect x="420" y="280" width="20" height="20" fill="rgb(0,0,0)" opacity="1.0" shape-rendering="crispEdges" /><rect x="480" y="280" width="20" height="20" fill="rgb(0,0,0)" opacity="1.0" shape-rendering="crispEdges" /><rect x="0" y="300" width="20" height="20" fill="rgb(0,0,0)" opacity="1.0" shape-rendering="crispEdges" /><rect x="40" y="300" width="20" height="20" fill="rgb(0,0,0)" opacity="1.0" shape-rendering="crispEdges" /><rect x="80" y="300" width="20" height="20" fill="rgb(0,0,0)" opacity="1.0" shape-rendering="crispEdges" /><rect x="100" y="300" width="20" height="20" fill="rgb(0,0,0)" opacity="1.0" shape-rendering="crispEdges" /><rect x="140" y="300" width="20" height="20" fill="rgb(0,0,0)" opacity="1.0" shape-rendering="crispEdges" /><rect x="200" y="300" width="20" height="20" fill="rgb(0,0,0)" opacity="1.0" shape-rendering="crispEdges" /><rect x="220" y="300" width="20" height="20" fill="rgb(0,0,0)" opacity="1.0" shape-rendering="crispEdges" /><rect x="260" y="300" width="20" height="20" fill="rgb(0,0,0)" opacity="1.0" shape-rendering="crispEdges" /><rect x="320" y="300" width="20" height="20" fill="rgb(0,0,0)" opacity="1.0" shape-rendering="crispEdges" /><rect x="460" y="300" width="20" height="20" fill="rgb(0,0,0)" opacity="1.0" shape-rendering="crispEdges" /><rect x="480" y="300" width="20" height="20" fill="rgb(0,0,0)" opacity="1.0" shape-rendering="crispEdges" /><rect x="60" y="320" width="20" height="20" fill="rgb(0,0,0)" opacity="1.0" shape-rendering="crispEdges" /><rect x="100" y="320" width="20" height="20" fill="rgb(0,0,0)" opacity="1.0" shape-rendering="crispEdges" /><rect x="120" y="320" width="20" height="20" fill="rgb(0,0,0)" opacity="1.0" shape-rendering="crispEdges" /><rect x="200" y="320" width="20" height="20" fill="rgb(0,0,0)" opacity="1.0" shape-rendering="crispEdges" /><rect x="220" y="320" width="20" height="20" fill="rgb(0,0,0)" opacity="1.0" shape-rendering="crispEdges" /><rect x="240" y="320" width="20" height="20" fill="rgb(0,0,0)" opacity="1.0" shape-rendering="crispEdges" /><rect x="280" y="320" width="20" height="20" fill="rgb(0,0,0)" opacity="1.0" shape-rendering="crispEdges" /><rect x="320" y="320" width="20" height="20" fill="rgb(0,0,0)" opacity="1.0" shape-rendering="crispEdges" /><rect x="340" y="320" width="20" height="20" fill="rgb(0,0,0)" opacity="1.0" shape-rendering="crispEdges" /><rect x="360" y="320" width="20" height="20" fill="rgb(0,0,0)" opacity="1.0" shape-rendering="crispEdges" /><rect x="380" y="320" width="20" height="20" fill="rgb(0,0,0)" opacity="1.0" shape-rendering="crispEdges" /><rect x="400" y="320" width="20" height="20" fill="rgb(0,0,0)" opacity="1.0" shape-rendering="crispEdges" /><rect x="460" y="320" width="20" height="20" fill="rgb(0,0,0)" opacity="1.0" shape-rendering="crispEdges" /><rect x="160" y="340" width="20" height="20" fill="rgb(0,0,0)" opacity="1.0" shape-rendering="crispEdges" /><rect x="200" y="340" width="20" height="20" fill="rgb(0,0,0)" opacity="1.0" shape-rendering="crispEdges" /><rect x="260" y="340" width="20" height="20" fill="rgb(0,0,0)" opacity="1.0" shape-rendering="crispEdges" /><rect x="320" y="340" width="20" height="20" fill="rgb(0,0,0)" opacity="1.0" shape-rendering="crispEdges" /><rect x="400" y="340" width="20" height="20" fill="rgb(0,0,0)" opacity="1.0" shape-rendering="crispEdges" /><rect x="420" y="340" width="20" height="20" fill="rgb(0,0,0)" opacity="1.0" shape-rendering="crispEdges" /><rect x="440" y="340" width="20" height="20" fill="rgb(0,0,0)" opacity="1.0" shape-rendering="crispEdges" /><rect x="160" y="360" width="20" height="20" fill="rgb(0,0,0)" opacity="1.0" shape-rendering="crispEdges" /><rect x="180" y="360" width="20" height="20" fill="rgb(0,0,0)" opacity="1.0" shape-rendering="crispEdges" /><rect x="200" y="360" width="20" height="20" fill="rgb(0,0,0)" opacity="1.0" shape-rendering="crispEdges" /><rect x="220" y="360" width="20" height="20" fill="rgb(0,0,0)" opacity="1.0" shape-rendering="crispEdges" /><rect x="240" y="360" width="20" height="20" fill="rgb(0,0,0)" opacity="1.0" shape-rendering="crispEdges" /><rect x="260" y="360" width="20" height="20" fill="rgb(0,0,0)" opacity="1.0" shape-rendering="crispEdges" /><rect x="280" y="360" width="20" height="20" fill="rgb(0,0,0)" opacity="1.0" shape-rendering="crispEdges" /><rect x="300" y="360" width="20" height="20" fill="rgb(0,0,0)" opacity="1.0" shape-rendering="crispEdges" /><rect x="320" y="360" width="20" height="20" fill="rgb(0,0,0)" opacity="1.0" shape-rendering="crispEdges" /><rect x="360" y="360" width="20" height="20" fill="rgb(0,0,0)" opacity="1.0" shape-rendering="crispEdges" /><rect x="400" y="360" width="20" height="20" fill="rgb(0,0,0)" opacity="1.0" shape-rendering="crispEdges" /><rect x="440" y="360" width="20" height="20" fill="rgb(0,0,0)" opacity="1.0" shape-rendering="crispEdges" /><rect x="460" y="360" width="20" height="20" fill="rgb(0,0,0)" opacity="1.0" shape-rendering="crispEdges" /><rect x="480" y="360" width="20" height="20" fill="rgb(0,0,0)" opacity="1.0" shape-rendering="crispEdges" /><rect x="160" y="380" width="20" height="20" fill="rgb(0,0,0)" opacity="1.0" shape-rendering="crispEdges" /><rect x="180" y="380" width="20" height="20" fill="rgb(0,0,0)" opacity="1.0" shape-rendering="crispEdges" /><rect x="240" y="380" width="20" height="20" fill="rgb(0,0,0)" opacity="1.0" shape-rendering="crispEdges" /><rect x="320" y="380" width="20" height="20" fill="rgb(0,0,0)" opacity="1.0" shape-rendering="crispEdges" /><rect x="400" y="380" width="20" height="20" fill="rgb(0,0,0)" opacity="1.0" shape-rendering="crispEdges" /><rect x="460" y="380" width="20" height="20" fill="rgb(0,0,0)" opacity="1.0" shape-rendering="crispEdges" /><rect x="480" y="380" width="20" height="20" fill="rgb(0,0,0)" opacity="1.0" shape-rendering="crispEdges" /><rect x="180" y="400" width="20" height="20" fill="rgb(0,0,0)" opacity="1.0" shape-rendering="crispEdges" /><rect x="260" y="400" width="20" height="20" fill="rgb(0,0,0)" opacity="1.0" shape-rendering="crispEdges" /><rect x="280" y="400" width="20" height="20" fill="rgb(0,0,0)" opacity="1.0" shape-rendering="crispEdges" /><rect x="300" y="400" width="20" height="20" fill="rgb(0,0,0)" opacity="1.0" shape-rendering="crispEdges" /><rect x="320" y="400" width="20" height="20" fill="rgb(0,0,0)" opacity="1.0" shape-rendering="crispEdges" /><rect x="340" y="400" width="20" height="20" fill="rgb(0,0,0)" opacity="1.0" shape-rendering="crispEdges" /><rect x="360" y="400" width="20" height="20" fill="rgb(0,0,0)" opacity="1.0" shape-rendering="crispEdges" /><rect x="380" y="400" width="20" height="20" fill="rgb(0,0,0)" opacity="1.0" shape-rendering="crispEdges" /><rect x="400" y="400" width="20" height="20" fill="rgb(0,0,0)" opacity="1.0" shape-rendering="crispEdges" /><rect x="440" y="400" width="20" height="20" fill="rgb(0,0,0)" opacity="1.0" shape-rendering="crispEdges" /><rect x="480" y="400" width="20" height="20" fill="rgb(0,0,0)" opacity="1.0" shape-rendering="crispEdges" /><rect x="160" y="420" width="20" height="20" fill="rgb(0,0,0)" opacity="1.0" shape-rendering="crispEdges" /><rect x="180" y="420" width="20" height="20" fill="rgb(0,0,0)" opacity="1.0" shape-rendering="crispEdges" /><rect x="200" y="420" width="20" height="20" fill="rgb(0,0,0)" opacity="1.0" shape-rendering="crispEdges" /><rect x="220" y="420" width="20" height="20" fill="rgb(0,0,0)" opacity="1.0" shape-rendering="crispEdges" /><rect x="280" y="420" width="20" height="20" fill="rgb(0,0,0)" opacity="1.0" shape-rendering="crispEdges" /><rect x="300" y="420" width="20" height="20" fill="rgb(0,0,0)" opacity="1.0" shape-rendering="crispEdges" /><rect x="320" y="420" width="20" height="20" fill="rgb(0,0,0)" opacity="1.0" shape-rendering="crispEdges" /><rect x="340" y="420" width="20" height="20" fill="rgb(0,0,0)" opacity="1.0" shape-rendering="crispEdges" /><rect x="400" y="420" width="20" height="20" fill="rgb(0,0,0)" opacity="1.0" shape-rendering="crispEdges" /><rect x="460" y="420" width="20" height="20" fill="rgb(0,0,0)" opacity="1.0" shape-rendering="crispEdges" /><rect x="480" y="420" width="20" height="20" fill="rgb(0,0,0)" opacity="1.0" shape-rendering="crispEdges" /><rect x="160" y="440" width="20" height="20" fill="rgb(0,0,0)" opacity="1.0" shape-rendering="crispEdges" /><rect x="180" y="440" width="20" height="20" fill="rgb(0,0,0)" opacity="1.0" shape-rendering="crispEdges" /><rect x="200" y="440" width="20" height="20" fill="rgb(0,0,0)" opacity="1.0" shape-rendering="crispEdges" /><rect x="260" y="440" width="20" height="20" fill="rgb(0,0,0)" opacity="1.0" shape-rendering="crispEdges" /><rect x="300" y="440" width="20" height="20" fill="rgb(0,0,0)" opacity="1.0" shape-rendering="crispEdges" /><rect x="360" y="440" width="20" height="20" fill="rgb(0,0,0)" opacity="1.0" shape-rendering="crispEdges" /><rect x="420" y="440" width="20" height="20" fill="rgb(0,0,0)" opacity="1.0" shape-rendering="crispEdges" /><rect x="440" y="440" width="20" height="20" fill="rgb(0,0,0)" opacity="1.0" shape-rendering="crispEdges" /><rect x="460" y="440" width="20" height="20" fill="rgb(0,0,0)" opacity="1.0" shape-rendering="crispEdges" /><rect x="180" y="460" width="20" height="20" fill="rgb(0,0,0)" opacity="1.0" shape-rendering="crispEdges" /><rect x="220" y="460" width="20" height="20" fill="rgb(0,0,0)" opacity="1.0" shape-rendering="crispEdges" /><rect x="260" y="460" width="20" height="20" fill="rgb(0,0,0)" opacity="1.0" shape-rendering="crispEdges" /><rect x="320" y="460" width="20" height="20" fill="rgb(0,0,0)" opacity="1.0" shape-rendering="crispEdges" /><rect x="340" y="460" width="20" height="20" fill="rgb(0,0,0)" opacity="1.0" shape-rendering="crispEdges" /><rect x="400" y="460" width="20" height="20" fill="rgb(0,0,0)" opacity="1.0" shape-rendering="crispEdges" /><rect x="440" y="460" width="20" height="20" fill="rgb(0,0,0)" opacity="1.0" shape-rendering="crispEdges" /><rect x="460" y="460" width="20" height="20" fill="rgb(0,0,0)" opacity="1.0" shape-rendering="crispEdges" /><rect x="480" y="460" width="20" height="20" fill="rgb(0,0,0)" opacity="1.0" shape-rendering="crispEdges" /><rect x="160" y="480" width="20" height="20" fill="rgb(0,0,0)" opacity="1.0" shape-rendering="crispEdges" /><rect x="240" y="480" width="20" height="20" fill="rgb(0,0,0)" opacity="1.0" shape-rendering="crispEdges" /><rect x="260" y="480" width="20" height="20" fill="rgb(0,0,0)" opacity="1.0" shape-rendering="crispEdges" /><rect x="340" y="480" width="20" height="20" fill="rgb(0,0,0)" opacity="1.0" shape-rendering="crispEdges" /><rect x="440" y="480" width="20" height="20" fill="rgb(0,0,0)" opacity="1.0" shape-rendering="crispEdges" /><rect x="460" y="480" width="20" height="20" fill="rgb(0,0,0)" opacity="1.0" shape-rendering="crispEdges" /><rect x="480" y="480" width="20" height="20" fill="rgb(0,0,0)" opacity="1.0" shape-rendering="crispEdges" /><path d="M0 0 H112.0 A28.0 28.0 0 0 1 140 28.0 V112.0 A28.0 28.0 0 0 1 112.0 140 H28.0 A28.0 28.0 0 0 1 0 112.0 V28.0 A28.0 28.0 0 0 1 28 0 Z M20.0 20.0 H100.0 A20.0 20.0 0 0 1 120.0 40.0 V100.0 A20.0 20.0 0 0 1 100.0 120.0 H40.0 A20.0 20.0 0 0 1 20.0 100.0 V40.0 A20.0 20.0 0 0 1 40.0 20.0 Z" fill-rule="evenodd" fill="rgb(0,0,0)" opacity="1.0" /><path d="M360 0 H472.0 A28.0 28.0 0 0 1 500 28.0 V112.0 A28.0 28.0 0 0 1 472.0 140 H388.0 A28.0 28.0 0 0 1 360 112.0 V28.0 A28.0 28.0 0 0 1 388 0 Z M380.0 20.0 H460.0 A20.0 20.0 0 0 1 480.0 40.0 V100.0 A20.0 20.0 0 0 1 460.0 120.0 H400.0 A20.0 20.0 0 0 1 380.0 100.0 V40.0 A20.0 20.0 0 0 1 400.0 20.0 Z" fill-rule="evenodd" fill="rgb(0,0,0)" opacity="1.0" /><rect x="40" y="40" width="60" height="60" fill="rgb(0,0,0)" opacity="1.0" shape-rendering="crispEdges" /><rect x="400" y="40" width="60" height="60" fill="rgb(0,0,0)" opacity="1.0" shape-rendering="crispEdges" /><path d="M0 360 H112.0 A28.0 28.0 0 0 1 140 388.0 V472.0 A28.0 28.0 0 0 1 112.0 500 H28.0 A28.0 28.0 0 0 1 0 472.0 V388.0 A28.0 28.0 0 0 1 28 360 Z M20.0 380.0 H100.0 A20.0 20.0 0 0 1 120.0 400.0 V460.0 A20.0 20.0 0 0 1 100.0 480.0 H40.0 A20.0 20.0 0 0 1 20.0 460.0 V400.0 A20.0 20.0 0 0 1 40.0 380.0 Z" fill-rule="evenodd" fill="rgb(0,0,0)" opacity="1.0" /><rect x="40" y="400" width="60" height="60" fill="rgb(0,0,0)" opacity="1.0" shape-rendering="crispEdges" /></svg></g></svg>